HIERARCHY
ROOT root
{
	OFFSET 0.000000 0.000000 0.000000
	CHANNELS 6 Xposition Yposition Zposition Zrotation Yrotation Xrotation
	JOINT lhip
	{
		OFFSET 0.058581 -0.082280 -0.017664
		CHANNELS 3 Zrotation Yrotation Xrotation
		JOINT lknee
		{
			OFFSET 0.043451 -0.386469 0.008037
			CHANNELS 3 Zrotation Yrotation Xrotation
			JOINT lankle
			{
				OFFSET -0.014790 -0.426874 -0.037428
				CHANNELS 3 Zrotation Yrotation Xrotation
				JOINT ltoe
				{
					OFFSET 0.041054 -0.060286 0.122042
					CHANNELS 3 Zrotation Yrotation Xrotation
					End Site
					{
						OFFSET 0.000000 0.000000 0.000000
					}
				}
			}
		}
	}
	JOINT rhip
	{
		OFFSET -0.060310 -0.090513 -0.013543
		CHANNELS 3 Zrotation Yrotation Xrotation
		JOINT rknee
		{
			OFFSET -0.043257 -0.383688 -0.004843
			CHANNELS 3 Zrotation Yrotation Xrotation
			JOINT rankle
			{
				OFFSET 0.019056 -0.420046 -0.034562
				CHANNELS 3 Zrotation Yrotation Xrotation
				JOINT rtoe
				{
					OFFSET -0.034840 -0.062106 0.130323
					CHANNELS 3 Zrotation Yrotation Xrotation
					End Site
					{
						OFFSET 0.000000 0.000000 0.000000
					}
				}
			}
		}
	}
	JOINT lowerback
	{
		OFFSET 0.004439 0.124404 -0.038385
		CHANNELS 3 Zrotation Yrotation Xrotation
		JOINT upperback
		{
			OFFSET 0.004488 0.137956 0.026820
			CHANNELS 3 Zrotation Yrotation Xrotation
			JOINT chest
			{
				OFFSET -0.002265 0.056032 0.002855
				CHANNELS 3 Zrotation Yrotation Xrotation
				JOINT lowerneck
				{
					OFFSET -0.013390 0.211636 -0.033468
					CHANNELS 3 Zrotation Yrotation Xrotation
					JOINT upperneck
					{
						OFFSET 0.010113 0.088937 0.050410
						CHANNELS 3 Zrotation Yrotation Xrotation
						End Site
						{
							OFFSET 0.000000 0.000000 0.000000
						}
					}
				}
				JOINT lclavicle
				{
					OFFSET 0.071702 0.114000 -0.018898
					CHANNELS 3 Zrotation Yrotation Xrotation
					JOINT lshoulder
					{
						OFFSET 0.122921 0.045205 -0.019046
						CHANNELS 3 Zrotation Yrotation Xrotation
						JOINT lelbow
						{
							OFFSET 0.255332 -0.015649 -0.022946
							CHANNELS 3 Zrotation Yrotation Xrotation
							JOINT lwrist
							{
								OFFSET 0.265709 0.012698 -0.007375
								CHANNELS 3 Zrotation Yrotation Xrotation
								End Site
								{
									OFFSET 0.000000 0.000000 0.000000
								}
							}
						}
					}
				}
				JOINT rclavicle
				{
					OFFSET -0.082954 0.112472 -0.023707
					CHANNELS 3 Zrotation Yrotation Xrotation
					JOINT rshoulder
					{
						OFFSET -0.113228 0.046853 -0.008472
						CHANNELS 3 Zrotation Yrotation Xrotation
						JOINT relbow
						{
							OFFSET -0.260127 -0.014369 -0.031269
							CHANNELS 3 Zrotation Yrotation Xrotation
							JOINT rwrist
							{
								OFFSET -0.269108 0.006794 -0.006027
								CHANNELS 3 Zrotation Yrotation Xrotation
								End Site
								{
									OFFSET 0.000000 0.000000 0.000000
								}
							}
						}
					}
				}
			}
		}
	}
}
MOTION
Frames: 17
Frame Time: 0.033333
0.062643 0.117593 0.960324 54.949164 0.834525 117.848530 12.708763 22.478503 -19.956072 -0.132635 19.350924 -2.772172 -9.286944 14.944209 1.004530 0.000000 -0.000000 0.000000 -10.030004 11.236206 -59.986104 0.552010 17.186265 23.569164 13.245007 3.827295 -0.970668 0.000000 -0.000000 0.000000 -10.020535 -12.972559 56.328252 0.042845 -15.782571 0.536364 1.250447 -14.617541 -1.042568 -6.656490 11.686428 11.615102 11.341076 8.599417 12.510170 -14.500254 -35.291686 6.343215 -2.923652 -20.615860 -17.284563 2.208290 1.434287 -11.186925 -6.336861 -12.589226 23.076944 2.983455 7.609114 2.772600 25.699745 -9.911808 -17.052490 -17.149997 -3.430847 -54.633191 0.376252 6.335143 -35.928077 
0.061274 0.119061 0.959991 54.998406 0.519624 117.595154 12.538887 22.236059 -19.851578 -0.119775 19.257403 -2.684658 -9.287322 14.977645 0.941865 0.000000 -0.000000 0.000000 -10.271367 11.043169 -59.945457 0.613660 17.103538 23.775620 13.200511 3.849446 -0.827249 0.000000 -0.000000 0.000000 -9.756847 -13.056231 56.506764 0.034639 -15.499674 0.647983 1.241085 -14.333648 -1.191045 -6.561768 11.724427 12.016332 11.352197 8.555438 12.370107 -14.419504 -35.468187 6.153379 -2.244301 -20.110698 -17.109223 1.597990 1.388278 -10.920161 -6.406528 -12.680349 23.375709 2.888703 8.649971 2.941664 24.821689 -9.119024 -16.992058 -16.876333 -3.259595 -54.531689 0.026803 6.419877 -35.502066 
0.060217 0.120997 0.959763 55.249754 0.206389 117.150564 12.321055 22.196953 -19.547033 -0.130283 18.879186 -2.836411 -9.423583 14.725698 0.852557 0.000000 -0.000000 0.000000 -10.459126 10.800209 -59.618964 0.538251 16.917621 24.005183 13.076473 3.996019 -0.872277 0.000000 -0.000000 0.000000 -9.279126 -13.326149 56.455898 -0.092533 -15.336769 0.899940 1.215697 -13.888581 -1.599990 -6.608449 11.399569 12.412865 11.329201 8.527967 12.135870 -14.441029 -35.716348 5.848227 -2.023326 -19.269094 -16.855234 1.657337 1.073960 -11.297019 -5.989564 -12.647522 23.880574 2.553691 9.804536 2.944863 24.275314 -8.597517 -17.079597 -16.723978 -2.895803 -54.389901 0.023178 6.517737 -35.041174 
0.058568 0.123091 0.959949 55.733738 0.020686 116.773153 12.370873 22.080710 -19.472887 -0.283784 18.614701 -2.815112 -9.594483 14.382561 0.802825 0.000000 -0.000000 0.000000 -10.551989 10.539290 -59.230730 0.489703 16.804313 23.956384 13.007516 3.745819 -0.928887 0.000000 -0.000000 0.000000 -8.807676 -13.120654 55.806767 0.048168 -14.819502 0.959754 1.443570 -13.690187 -1.649509 -6.353357 10.897514 12.916561 11.216095 8.460625 11.903865 -14.724271 -35.966552 6.222779 -1.807570 -18.645124 -16.807536 1.937854 0.864701 -11.316410 -6.732723 -12.528355 23.610856 2.547105 10.777982 3.138361 23.088190 -7.862981 -17.331806 -16.502654 -2.849217 -54.177321 0.218601 6.712434 -34.614092 
0.056656 0.125523 0.960578 56.479660 -0.249707 115.932609 12.408781 21.923976 -19.120051 -0.345828 17.849921 -2.701555 -9.524485 14.177240 0.741421 0.000000 -0.000000 0.000000 -10.675639 10.164682 -58.309537 0.521915 16.674078 23.924707 12.735882 3.482714 -1.000591 0.000000 -0.000000 0.000000 -8.242487 -13.338978 55.056859 -0.046732 -14.656840 1.261612 1.324702 -13.296234 -1.837603 -6.125345 10.547625 12.884758 11.200593 8.280265 11.820877 -14.390063 -35.737532 5.741309 -1.866543 -17.909135 -16.683846 1.583669 0.553886 -10.760912 -7.514673 -12.571699 23.006600 2.378859 11.732681 3.267646 22.699614 -6.909497 -17.281564 -16.470429 -2.475936 -53.131808 -0.102907 6.745636 -33.862357 
0.054751 0.127886 0.961585 57.451501 -0.421538 114.904940 12.559157 21.859777 -18.872171 -0.323746 17.082754 -2.260330 -9.498254 13.751986 0.712450 0.000000 -0.000000 0.000000 -10.406111 9.591351 -57.190531 0.553288 16.669746 23.990093 12.536653 3.332866 -1.058814 0.000000 -0.000000 0.000000 -7.648729 -13.585632 54.095138 -0.038220 -14.262072 1.278709 1.387501 -13.081107 -1.819566 -6.347523 9.667738 12.430694 10.748536 8.355583 11.525874 -14.105983 -34.920570 5.053997 -2.730276 -17.516367 -16.430125 2.260728 0.017600 -10.504471 -8.186115 -12.315364 22.108210 1.639882 12.435029 2.992446 22.364186 -5.697637 -17.378035 -16.156885 -2.153185 -51.715897 0.196912 6.973188 -32.508083 
0.052630 0.130194 0.963023 58.614758 -0.697310 113.740039 12.791335 21.428091 -18.461615 -0.425073 16.171648 -1.955449 -9.276332 13.622877 0.752341 0.000000 -0.000000 0.000000 -10.403573 9.086101 -55.955421 0.567865 16.416993 24.138656 12.378335 3.112840 -1.254218 0.000000 -0.000000 0.000000 -7.136781 -13.599897 52.804751 0.039979 -13.761644 0.835465 1.373515 -12.776047 -1.724642 -5.755426 8.848864 12.438407 10.756939 8.105177 11.999273 -13.879930 -33.983021 4.977084 -3.760587 -17.417675 -16.107638 2.822607 -0.392554 -10.032678 -6.991560 -12.601341 21.294353 1.632997 12.814037 3.403125 21.424551 -4.495909 -17.607808 -15.638810 -2.010538 -50.212362 0.268322 7.095950 -31.622811 
0.051411 0.132765 0.964736 60.275505 -1.049577 112.166165 13.087901 20.624268 -17.776137 -0.457326 14.752874 -1.461444 -9.090224 13.544439 0.596288 0.000000 -0.000000 0.000000 -10.946126 8.781420 -54.184612 0.690971 15.824968 24.462059 12.312534 2.338217 -1.727790 0.000000 -0.000000 0.000000 -6.541793 -13.568183 51.268594 0.345220 -13.012996 0.495639 1.409922 -12.088184 -1.249846 -5.020593 7.665665 12.062056 10.674227 7.769926 12.071738 -13.509359 -33.178341 4.229051 -5.218044 -18.336779 -15.237639 3.489074 -0.376312 -10.546996 -3.987788 -13.221449 20.600204 1.862447 12.521755 2.704875 19.998797 -4.038051 -17.258923 -15.269322 -1.764251 -49.310388 0.640429 6.945338 -30.062183 
0.050680 0.135597 0.966506 61.955526 -1.358770 110.257879 13.374532 20.173810 -16.590016 -0.602692 13.121800 -1.296530 -9.071052 13.232345 0.426080 0.000000 -0.000000 0.000000 -11.141653 8.554939 -52.053841 0.591944 15.617699 24.930645 12.248354 1.522455 -2.360533 0.000000 -0.000000 0.000000 -5.968028 -13.258992 49.337496 0.732739 -12.169200 0.583537 1.443820 -11.194674 -1.125803 -3.982667 6.320558 11.841918 10.306249 6.294970 12.005044 -12.601678 -32.122147 3.761039 -6.896187 -19.431458 -14.192360 3.900935 -0.508462 -9.605451 -3.455486 -13.353753 19.449076 2.204204 12.204559 2.472883 18.692621 -3.890082 -16.519662 -14.825882 -1.737577 -47.623925 1.159017 6.864471 -28.617247 
0.051408 0.139351 0.968176 64.088812 -1.927293 108.241234 13.315190 19.540553 -15.543474 -0.668187 11.222446 -0.828608 -8.880017 12.232384 -0.185819 0.000000 -0.000000 0.000000 -11.481392 7.548871 -49.882630 0.683597 15.015771 25.870585 12.225642 1.319286 -3.143563 0.000000 -0.000000 0.000000 -4.801049 -13.477588 46.791543 0.812614 -11.853811 0.539165 1.026042 -10.212120 -0.925540 -3.266192 4.802030 11.826476 9.992181 5.393433 11.475159 -11.555447 -31.092987 2.960206 -8.398190 -19.940404 -13.485122 4.228700 -0.497826 -8.656158 -4.204048 -12.933147 19.922547 2.104647 11.691858 1.940378 18.228883 -3.608199 -16.751970 -14.893243 -1.227932 -46.672154 1.949140 7.232618 -26.973837 
0.053220 0.142912 0.970170 66.281083 -2.327511 105.774673 13.544404 18.802988 -13.861631 -0.833540 8.364605 -0.465552 -9.443893 11.777702 -0.810432 0.000000 -0.000000 0.000000 -11.646873 7.010514 -47.094679 0.833013 15.107104 26.850331 12.049500 0.162469 -4.438116 0.000000 -0.000000 0.000000 -3.953257 -13.332123 44.399836 1.143920 -11.241885 0.597123 0.899922 -9.408590 -0.581076 -2.413825 3.882730 10.856376 9.325738 4.492830 11.516362 -10.756728 -29.833502 2.126946 -9.095898 -20.465188 -12.719104 4.368471 -0.376306 -8.103147 -4.433323 -12.782814 19.788021 2.499991 11.252908 0.766593 16.865927 -3.430461 -15.957118 -14.400521 -0.998533 -45.459146 2.757257 7.546743 -25.246478 
0.057198 0.146740 0.972588 68.500329 -2.809266 102.871473 13.611868 18.023685 -11.828911 -0.942734 5.362691 0.116966 -9.441329 11.248570 -1.737747 0.000000 -0.000000 0.000000 -11.731582 6.310806 -43.711564 0.950169 15.306633 27.927840 11.706659 -0.737092 -5.807632 0.000000 -0.000000 0.000000 -3.123092 -12.984051 41.897988 1.445480 -10.959382 1.142212 0.921480 -8.744968 -0.315917 -1.994529 3.525003 9.269411 8.720389 3.421281 11.312012 -9.594790 -28.620410 0.940963 -9.608540 -20.157430 -12.116073 4.161120 -0.680156 -7.277345 -4.064797 -12.645329 19.289298 2.180625 11.082829 -0.050530 16.357104 -3.027720 -15.743679 -13.879050 -0.599330 -44.193372 3.326411 8.010830 -23.775176 
0.064152 0.149866 0.975024 70.469924 -3.268168 99.728793 13.559838 17.414553 -9.357512 -0.881233 2.443400 0.718579 -9.596756 10.820697 -2.862669 0.000000 -0.000000 0.000000 -11.801711 5.660595 -39.829889 1.073862 15.623595 28.868591 11.316138 -1.723096 -7.409707 0.000000 -0.000000 0.000000 -2.421828 -12.424319 39.253701 1.616431 -10.646384 1.513787 0.999722 -8.420518 0.040329 -1.955521 3.215143 7.770286 8.001250 2.473033 10.892340 -8.906308 -27.295371 -0.127434 -9.089471 -19.350574 -12.152396 3.446679 -1.037099 -7.561605 -3.407663 -12.630425 18.858475 1.981332 11.473143 -0.281004 15.990528 -2.574701 -15.313053 -13.553534 -0.043082 -43.110244 2.572002 7.546404 -21.998577 
0.071277 0.152380 0.978060 73.001125 -3.537495 97.094757 13.532290 16.429460 -7.844089 -0.870836 -0.052270 1.753156 -9.505348 10.785081 -4.081739 0.000000 -0.000000 0.000000 -11.942347 5.013412 -36.143419 0.959152 15.515621 29.308394 10.910961 -3.430862 -9.031880 0.000000 -0.000000 0.000000 -1.709944 -11.716242 35.890849 2.037444 -10.480337 2.016255 1.162062 -8.072975 0.230364 -1.625827 3.329291 6.288058 7.304178 1.403436 11.121307 -8.291693 -26.532385 -0.597020 -8.336677 -18.267132 -11.981322 3.175083 -1.414856 -7.067209 -2.479569 -12.522161 18.180758 2.571688 11.679290 -0.518828 15.240076 -2.083827 -14.929141 -12.970458 0.154537 -42.294758 2.049054 7.486218 -20.598635 
0.080610 0.155937 0.980963 75.559414 -3.616891 94.417983 13.490960 16.140121 -6.729098 -0.941670 -2.650662 3.689834 -9.030789 10.384872 -5.372424 0.000000 -0.000000 0.000000 -11.984849 3.886462 -32.108465 1.144563 15.716877 29.492331 10.545236 -4.113823 -10.452188 0.000000 -0.000000 0.000000 -0.861821 -10.994216 32.798632 2.432301 -10.502326 2.297326 1.237590 -7.454860 0.054092 -1.420243 2.944560 5.294808 6.490013 0.866140 11.312095 -7.691055 -25.621103 -1.547752 -7.519100 -17.633038 -12.234930 2.855274 -1.646744 -7.703291 -0.153442 -12.701485 17.397909 2.964001 11.886482 -0.761201 15.024617 -2.009071 -14.594381 -12.470331 0.284409 -41.317230 2.176739 7.371943 -19.407505 
0.090315 0.159532 0.983662 78.061202 -3.597013 92.225240 13.445564 14.740447 -5.883341 -1.144399 -5.945049 5.464450 -8.469873 10.756901 -6.509444 0.000000 -0.000000 0.000000 -12.164326 3.006513 -28.438516 1.346856 15.923826 29.475604 10.271952 -5.186067 -11.584127 0.000000 -0.000000 0.000000 -0.388401 -9.770602 29.289467 3.057985 -10.339956 2.370903 1.421918 -7.081098 0.416319 -1.105299 3.251230 4.295517 5.589378 -0.322310 11.342158 -6.670478 -24.503871 -2.030255 -6.849699 -17.559225 -12.254676 2.921732 -2.244003 -7.107130 -0.022573 -12.474977 16.094279 3.876438 11.610776 -1.204328 14.778348 -1.872622 -13.435011 -12.391824 0.487699 -39.671643 3.300469 7.436280 -17.965068 
0.100724 0.164322 0.985607 80.250804 -3.415584 90.044679 13.606439 12.866713 -4.569487 -1.530987 -8.661826 6.799350 -7.795895 11.167002 -7.407587 0.000000 -0.000000 0.000000 -12.529935 2.432657 -24.657986 1.649220 15.856018 29.193318 10.047801 -6.138860 -12.706990 0.000000 -0.000000 0.000000 -0.048252 -8.518337 26.384017 3.595874 -10.049433 2.405116 1.610468 -6.464555 0.259876 -0.781769 3.677168 3.087672 4.696026 -1.396225 12.054490 -5.562428 -23.551454 -2.649277 -5.743368 -17.471785 -12.420010 2.633901 -2.847567 -6.870800 -0.155498 -12.623719 15.988802 4.580160 11.267697 -1.678629 14.646353 -2.115717 -12.687770 -11.928290 0.704971 -38.265282 3.562411 7.558981 -16.718622 
